<svg xmlns="http://www.w3.org/2000/svg" viewBox="0 0 27.001 20.999"><defs><style>.a{fill:#63acdd;fill-rule:evenodd;}</style></defs><g transform="translate(-3 -6)"><path class="a" d="M27.589,6H5.41A2.4,2.4,0,0,0,3,8.386V24.612A2.406,2.406,0,0,0,5.411,27H27.59A2.406,2.406,0,0,0,30,24.612V8.386A2.407,2.407,0,0,0,27.589,6Zm.482,18.611a.494.494,0,0,1-.482.478H5.41a.494.494,0,0,1-.482-.478V13.158a8.007,8.007,0,0,0,1.04.984c2.154,1.641,4.324,3.311,6.418,5.041,1.13.939,2.531,2.088,4.1,2.088h.032c1.567,0,2.967-1.148,4.1-2.088,2.094-1.73,4.264-3.4,6.418-5.041a8.075,8.075,0,0,0,1.04-.984V24.611Zm0-15.673a5.794,5.794,0,0,1-2.215,3.684q-3.03,2.349-6.042,4.728c-.8.642-2.245,2.014-3.3,2.014h-.03c-1.054,0-2.5-1.372-3.3-2.014q-3.006-2.37-6.042-4.728A5.361,5.361,0,0,1,4.929,8.387a.493.493,0,0,1,.482-.477H27.59C28.161,7.909,28.071,8.565,28.071,8.938Z"/></g></svg>