<svg xmlns="http://www.w3.org/2000/svg" xmlns:xlink="http://www.w3.org/1999/xlink" viewBox="0 0 50 50"><defs><style>.a{fill:none;stroke:#fff;stroke-miterlimit:10;stroke-width:2px;}.b{clip-path:url(#a);}.c{fill:#fff;}</style><clipPath id="a"><rect width="23" height="25"/></clipPath></defs><g transform="translate(-3195.5 -152.5)"><ellipse class="a" cx="24" cy="24" rx="24" ry="24" transform="translate(3196.5 153.5)"/><g transform="translate(3208.528 163.508)"><g class="b" transform="translate(0 0)"><path class="c" d="M24.638,31H10.362A4.007,4.007,0,0,1,6,26.787c0-3.68.866-9.328,5.651-9.328.507,0,2.647,2.263,5.847,2.263s5.342-2.263,5.849-2.263c4.786,0,5.65,5.647,5.65,9.328A4,4,0,0,1,24.638,31M17.5,18.5a6.25,6.25,0,1,1,6.272-6.251A6.262,6.262,0,0,1,17.5,18.5" transform="translate(-6 -6)"/></g></g></g></svg>