<svg xmlns="http://www.w3.org/2000/svg" xmlns:xlink="http://www.w3.org/1999/xlink" viewBox="0 0 22 25"><defs><style>.a{clip-path:url(#a);}.b,.c{fill:none;stroke:#62adde;}.c{stroke-linecap:round;stroke-linejoin:round;stroke-width:1.5px;}</style><clipPath id="a"><rect width="22" height="25"/></clipPath></defs><g transform="translate(-5 -3)"><g class="a" transform="translate(5 3)"><path class="b" d="M24.705,14.2,7.46,14.186a1.7,1.7,0,0,0-1.71,1.682V25.953a1.7,1.7,0,0,0,1.71,1.682h17.1a1.7,1.7,0,0,0,1.71-1.682V15.868A1.686,1.686,0,0,0,24.705,14.2Z" transform="translate(-5.012 -3.361)"/></g><g class="a" transform="translate(5 3)"><path class="c" d="M24.705,14.2,7.46,14.186a1.7,1.7,0,0,0-1.71,1.682V25.953a1.7,1.7,0,0,0,1.71,1.682h17.1a1.7,1.7,0,0,0,1.71-1.682V15.868A1.686,1.686,0,0,0,24.705,14.2Z" transform="translate(-5.012 -3.361)"/></g><g class="a" transform="translate(5 3)"><path class="c" d="M9.853,13.851V10.39s-.288-6.632,6.1-6.632c6.5-.285,6.5,6.632,6.5,6.632v3.47" transform="translate(-5.076 -3.024)"/></g></g></svg>